<?xml version="1.0" encoding="utf-8"?>
<!-- Generator: Adobe Illustrator 19.0.0, SVG Export Plug-In . SVG Version: 6.00 Build 0)  -->
<svg version="1.1" id="Camada_1" xmlns="http://www.w3.org/2000/svg" xmlns:xlink="http://www.w3.org/1999/xlink" x="0px" y="0px"
	 viewBox="0 0 65.5 61.3" style="enable-background:new 0 0 65.5 61.3;" xml:space="preserve">
<style type="text/css">
	.st0{fill:#D1E5F6;stroke:#FFFFFF;stroke-width:2;stroke-miterlimit:10;}
	.st1{fill:#617CA7;}
</style>
<g id="XMLID_17_">
	<path id="XMLID_54_" class="st0" d="M62.3,22.5L54.6,9.3C51.7,4.2,46.2,1,40.4,1L25.1,1c-5.9,0-11.4,3.1-14.3,8.3L3.2,22.3
		c-3,5.1-2.9,11.4,0,16.5l7.7,13.2c2.9,5.1,8.4,8.2,14.2,8.2l15.3,0c5.9,0,11.4-3.1,14.3-8.3L62.3,39C65.2,33.9,65.2,27.6,62.3,22.5
		z"/>
	<g id="XMLID_24_">
		<path id="XMLID_41_" class="st1" d="M24.1,30.6h0.7c1.8,0,3.4,0.7,4.8,2c1.4,1.4,2.1,3,2.1,5.1c0,2-0.7,3.6-2.1,4.9
			c-1.4,1.3-3.2,1.9-5.2,1.9c-2.3,0-4.2-0.9-5.7-2.7c-1.5-1.8-2.3-4.4-2.3-7.8c0-3.1,0.7-6,2-8.6c1.3-2.7,2.9-4.8,4.8-6.4
			c1.9-1.6,3.6-2.4,5.1-2.4c1,0,1.8,0.3,2.3,0.9c0.6,0.6,0.8,1.4,0.8,2.3c0,1.4-0.6,2.4-1.8,3c-1.6,0.9-3,2-3.9,3.2
			C24.8,27.3,24.2,28.8,24.1,30.6z M41.7,30.6h0.6c1.7,0,3.3,0.7,4.7,2c1.4,1.4,2.1,3,2.1,5.1c0,2-0.7,3.6-2.1,4.9
			c-1.4,1.3-3.2,2-5.2,2c-2.3,0-4.2-0.9-5.7-2.8c-1.5-1.9-2.2-4.5-2.2-7.8c0-2.4,0.4-4.6,1.2-6.8c0.8-2.1,1.8-4,3-5.5
			c1.2-1.6,2.5-2.8,4-3.7c1.4-0.9,2.7-1.4,3.8-1.4c1,0,1.8,0.3,2.4,0.9c0.5,0.6,0.8,1.3,0.8,2.3c0,1.4-0.6,2.4-1.8,3
			c-1.7,1-3,2-3.9,3.2C42.4,27.2,41.9,28.8,41.7,30.6z"/>
	</g>
</g>
</svg>
