<?xml version="1.0" encoding="utf-8"?>
<!-- Generator: Adobe Illustrator 19.0.0, SVG Export Plug-In . SVG Version: 6.00 Build 0)  -->
<svg version="1.1" xmlns="http://www.w3.org/2000/svg" xmlns:xlink="http://www.w3.org/1999/xlink" x="0px" y="0px"
	 viewBox="0 0 82.5 82.5" style="enable-background:new 0 0 82.5 82.5;" xml:space="preserve">
<style type="text/css">
	.st0{fill:#FFFFFF;}
	.st1{fill:#212D70;}
</style>
<g id="Camada_2">
	<circle id="XMLID_79_" class="st0" cx="39.1" cy="41.1" r="39.1"/>
</g>
<g id="Camada_1">
	<path id="XMLID_197_" class="st1" d="M54.2,36.3c-0.3,0-0.6,0-0.9,0c-0.2-3.7,1.8-9.1,3.2-12.5c0.6-1.5-0.4-3.1-2-3.1
		c-0.6,0-1.2,0.3-1.7,0.7C46.1,29.1,42,41.1,42,48.5c0,6.7,5.5,12.2,12.2,12.2c6.7,0,12.2-5.5,12.2-12.2
		C66.4,41.7,60.9,36.3,54.2,36.3z"/>
	<path id="XMLID_103_" class="st1" d="M24.8,36.3c-0.3,0-0.6,0-0.9,0c-0.2-3.7,1.8-9.1,3.2-12.5c0.6-1.5-0.4-3.1-2-3.1
		c-0.6,0-1.2,0.3-1.7,0.7c-6.8,7.6-10.9,19.7-10.9,27c0,6.7,5.5,12.2,12.2,12.2c6.7,0,12.2-5.5,12.2-12.2
		C37,41.7,31.5,36.3,24.8,36.3z"/>
</g>
</svg>
