<?xml version="1.0" encoding="utf-8"?>
<!-- Generator: Adobe Illustrator 19.0.0, SVG Export Plug-In . SVG Version: 6.00 Build 0)  -->
<svg version="1.1" xmlns="http://www.w3.org/2000/svg" xmlns:xlink="http://www.w3.org/1999/xlink" x="0px" y="0px"
	 viewBox="0 0 33.3 33.3" style="enable-background:new 0 0 33.3 33.3;" xml:space="preserve">
<style type="text/css">
	.st0{fill:#FFFFFF;}
	.st1{fill:#FFFFFF;stroke:#D55F37;stroke-width:1.5;stroke-miterlimit:10;}
	.st2{fill:#212D70;}
</style>
<g id="Camada_2">
	<circle id="XMLID_40_" class="st0" cx="16.7" cy="16.7" r="16.7"/>
</g>
<g id="Camada_1">
	<circle id="XMLID_58_" class="st1" cx="16.8" cy="17" r="11.3"/>
	<g id="XMLID_55_">
		<path id="XMLID_56_" class="st2" d="M13.9,13.8l-0.1-1.3c1.1-0.2,2.1-0.3,3.1-0.3c1,0,1.8,0.2,2.3,0.5c0.5,0.3,0.8,0.9,0.8,1.7
			c0,0.6-0.1,1.1-0.3,1.6s-0.6,1-1.3,1.7l-2.5,2.7c0.4-0.1,0.9-0.1,1.5-0.1h3v1.6h-6.5v-1c0-0.3,0.1-0.5,0.3-0.7l2.5-2.8
			c1.2-1.2,1.7-2.2,1.7-2.9c0-0.3-0.1-0.5-0.4-0.6c-0.2-0.1-0.6-0.1-1.1-0.1C15.8,13.6,14.9,13.7,13.9,13.8z"/>
	</g>
</g>
</svg>
