<?xml version="1.0" encoding="utf-8"?>
<!-- Generator: Adobe Illustrator 19.0.0, SVG Export Plug-In . SVG Version: 6.00 Build 0)  -->
<svg version="1.1" xmlns="http://www.w3.org/2000/svg" xmlns:xlink="http://www.w3.org/1999/xlink" x="0px" y="0px"
	 viewBox="0 0 33.3 33.3" style="enable-background:new 0 0 33.3 33.3;" xml:space="preserve">
<style type="text/css">
	.st0{fill:#FFFFFF;}
	.st1{fill:#FFFFFF;stroke:#D55F37;stroke-width:1.5;stroke-miterlimit:10;}
	.st2{fill:#212D70;}
</style>
<g id="Camada_2">
	<circle id="XMLID_40_" class="st0" cx="16.7" cy="16.7" r="16.7"/>
</g>
<g id="Camada_1">
	<circle id="XMLID_58_" class="st1" cx="16.8" cy="17" r="11.3"/>
	<g id="XMLID_1058_">
		<path id="XMLID_1059_" class="st2" d="M13.8,14.2l-0.1-1.3c1-0.2,2-0.3,2.9-0.3c1.1,0,1.9,0.2,2.4,0.5c0.5,0.3,0.7,0.9,0.7,1.8
			c0,0.7-0.1,1.3-0.3,1.7c-0.2,0.4-0.6,0.7-1.1,0.8v0.1c0.6,0.1,1,0.4,1.3,0.7c0.2,0.4,0.4,1,0.4,1.7c0,1-0.2,1.7-0.7,2.2
			c-0.5,0.5-1.3,0.7-2.5,0.7c-0.9,0-2-0.1-3.2-0.3l0.1-1.4c1.1,0.1,2,0.1,2.7,0.1c0.7,0,1.2-0.1,1.5-0.3c0.3-0.2,0.4-0.6,0.4-1.2
			c0-0.5-0.1-0.9-0.3-1.2c-0.2-0.2-0.7-0.4-1.3-0.3h-1.8v-1.3h1.8c0.6,0,1-0.1,1.2-0.4c0.2-0.2,0.3-0.6,0.3-1.1c0-0.5-0.1-0.8-0.3-1
			c-0.2-0.1-0.7-0.2-1.3-0.2C15.3,14.1,14.5,14.2,13.8,14.2z"/>
	</g>
</g>
</svg>
