<?xml version="1.0" encoding="utf-8"?>
<!-- Generator: Adobe Illustrator 19.0.0, SVG Export Plug-In . SVG Version: 6.00 Build 0)  -->
<svg version="1.1" xmlns="http://www.w3.org/2000/svg" xmlns:xlink="http://www.w3.org/1999/xlink" x="0px" y="0px"
	 viewBox="0 0 44.9 51.6" style="enable-background:new 0 0 44.9 51.6;" xml:space="preserve">
<style type="text/css">
	.st0{display:none;}
	.st1{display:inline;fill:#CC6A6A;}
	.st2{fill:#FFFFFF;}
	.st3{fill:#8A8A8A;}
</style>
<g id="Camada_2" class="st0">
	<rect id="XMLID_14_" x="-9" y="-5" class="st1" width="65.3" height="64.5"/>
</g>
<g id="Camada_3">
	<path id="XMLID_15_" class="st2" d="M25.3,5.7l-14.5,7.6l-4,1.3l-5-2.7c0,0-0.1-2,0.3-2.2s9.4-3.5,9.4-3.5l9.9-4.1l1.5,2.5
		L25.3,5.7z"/>
	<path id="XMLID_17_" class="st2" d="M39.3,12.7l-14.5,7.6l-4,1.3l-5-2.7c0,0-0.1-2,0.3-2.2c0.4-0.2,9.4-3.5,9.4-3.5l7.6-3.3
		l2.1,1.1c0,0,1,0.3,1.3,0.4C37.2,11.7,39.3,12.7,39.3,12.7z"/>
</g>
<g id="Camada_1">
	<g id="XMLID_300_">
		<path id="XMLID_302_" class="st3" d="M22.9,0c0.9,1.3,0.5,2.7,0.6,4.1c0,0.7-0.5,0.7-0.9,0.4c-1.4-0.9-2.7-0.4-4.1,0.2
			c-4.5,2-9,3.9-13.6,5.9c-0.4,0.2-1,0.2-1,0.7c0,0.6,0.7,0.6,1.1,0.7c2.2,0.6,4.4,0.6,6.6-0.3c5.8-2.6,11.6-5.1,17.5-7.6
			c0.4-0.2,0.7-0.3,1.1-0.4c0.8-0.2,1.4,0.1,1.7,0.8c0.3,0.8-0.4,0.9-0.9,1.1c-5.2,2.3-10.5,4.5-15.7,6.8c-0.5,0.2-1,0.4-1.5,0.7
			c-2.1,1-3.2,2.6-3.2,5.1c0,8,0,15.9,0,23.9c0,2.9-0.2,3-3.1,2.8c-1.9-0.1-3.7-0.5-5.4-1.5C0.7,42.6,0,41.5,0,39.9
			c0-9.3,0-18.7,0-28C0,10,0.9,8.9,2.5,8.2C8.1,5.8,13.7,3.4,19.3,1c0.7-0.3,1.4-0.6,2.1-1C21.9,0,22.4,0,22.9,0z"/>
		<path id="XMLID_301_" class="st3" d="M16,18c2.9,1.3,5.5,1.5,8.1,0.4c5.8-2.5,11.6-5,17.5-7.6c0.5-0.2,0.9-0.4,1.4-0.5
			c0.9-0.2,1.4,0.3,1.6,1.1c0.1,0.5,0.1,1,0.1,1.5c0,9,0,17.9,0,26.9c0,1.7-0.5,2.6-2.2,3.3c-5.9,2.4-11.7,5-17.5,7.5
			c-3.2,1.4-6.4,1.2-9.6-0.1c-2-0.8-3-2.2-3-4.5c0-9.1,0-18.2,0-27.3c0-1.9,0.8-3.1,2.5-3.9c6.1-2.6,12.3-5.3,18.4-8
			c1.7-0.7,2.5-0.2,2.6,1.6c0,0.2,0,0.3,0,0.5c0,2.2,0,2.3-2.1,1.6c-0.4-0.1-0.7-0.2-1.1,0C27.4,13,21.9,15.4,16,18z"/>
	</g>
</g>
</svg>
