<?xml version="1.0" encoding="utf-8"?>
<!-- Generator: Adobe Illustrator 19.0.0, SVG Export Plug-In . SVG Version: 6.00 Build 0)  -->
<svg version="1.1" id="Camada_1" xmlns="http://www.w3.org/2000/svg" xmlns:xlink="http://www.w3.org/1999/xlink" x="0px" y="0px"
	 viewBox="0 0 46.9 54.1" style="enable-background:new 0 0 46.9 54.1;" xml:space="preserve">
<style type="text/css">
	.st0{fill:#FFFFFF;}
	.st1{fill:#8A8A8A;}
</style>
<g id="XMLID_784_">
	<path id="XMLID_755_" class="st0" d="M33.3,4.7c-0.3-0.8-0.9-1.1-1.7-0.8c-0.2,0-3.5,1-5,1.5c-0.3,0.1-0.7-0.2-0.7-0.5
		c0-1.5-0.1-2.8-0.2-3.2C25.1,0,22.8-0.1,22.3,0c-0.8,0.2-1.5,0.7-2.2,1C14.2,3.6,8.4,6.1,2.5,8.6C0.4,9.5-0.1,10.7,0,14
		c0,0.6,0,26.4,0,26.4c0.1,3.1,0.2,4.2,2,5.2c1.8,1,6.6,3,9.7,1.6c0,0,0.6,4.6,4.4,5.8c4,1.3,6.7,1.6,10.2,0.1
		c6.1-2.7,12.3-5.3,18.4-7.9c1.6-0.7,2.2-1.7,2.1-3.4c-0.1-9.4,0-18.8,0-28.2c0-0.5,0-1.1-0.2-1.6c-0.2-0.8-1.3-2-2.1-1.8
		c-0.8,0.3-3.3,1.9-5.4,2.1c-0.6,0-1.1-0.4-1.1-0.9C38,10.4,37.8,9.1,37.8,9c0-2-1.8-2.8-3.6-2C34.2,6.9,33.6,5.5,33.3,4.7z"/>
</g>
<g id="XMLID_300_">
	<g id="XMLID_301_">
		<path id="XMLID_303_" class="st1" d="M23.9,1.2c0.9,1.3,0.5,2.7,0.6,4.1c0,0.7-0.5,0.7-0.9,0.4c-1.4-0.9-2.7-0.4-4.1,0.2
			c-4.5,2-9,3.9-13.6,5.9c-0.4,0.2-1,0.2-1,0.7c0,0.6,0.7,0.6,1.1,0.7c2.2,0.6,4.4,0.6,6.6-0.3c5.8-2.6,11.6-5.1,17.5-7.6
			c0.4-0.2,0.7-0.3,1.1-0.4C32,4.7,32.6,5,32.9,5.7c0.3,0.8-0.4,0.9-0.9,1.1c-5.2,2.3-10.5,4.5-15.7,6.8c-0.5,0.2-1,0.4-1.5,0.7
			c-2.1,1-3.2,2.6-3.2,5.1c0,8,0,15.9,0,23.9c0,2.9-0.2,3-3.1,2.8c-1.9-0.1-3.7-0.5-5.4-1.5C1.7,43.9,1,42.7,1,41.1
			c0-9.3,0-18.7,0-28c0-1.9,0.9-2.9,2.5-3.6C9.1,7,14.7,4.6,20.3,2.2c0.7-0.3,1.4-0.6,2.1-1C22.9,1.2,23.4,1.2,23.9,1.2z"/>
		<path id="XMLID_302_" class="st1" d="M17,19.2c2.9,1.3,5.5,1.5,8.1,0.4c5.8-2.5,11.6-5,17.5-7.6c0.5-0.2,0.9-0.4,1.4-0.5
			c0.9-0.2,1.4,0.3,1.6,1.1c0.1,0.5,0.1,1,0.1,1.5c0,9,0,17.9,0,26.9c0,1.7-0.5,2.6-2.2,3.3c-5.9,2.4-11.7,5-17.5,7.5
			c-3.2,1.4-6.4,1.2-9.6-0.1c-2-0.8-3-2.2-3-4.5c0-9.1,0-18.2,0-27.3c0-1.9,0.8-3.1,2.5-3.9c6.1-2.6,12.3-5.3,18.4-8
			c1.7-0.7,2.5-0.2,2.6,1.6c0,0.2,0,0.3,0,0.5c0,2.2,0,2.3-2.1,1.6c-0.4-0.1-0.7-0.2-1.1,0C28.4,14.3,22.9,16.7,17,19.2z"/>
	</g>
	<rect id="XMLID_758_" x="9.5" y="145.1" class="st1" width="4.1" height="0"/>
</g>
</svg>
