<svg class="navbar-nav-svg" viewBox="-166 186.6 626 189.4" width="180">
<g id="Camada_1_1_">
	<g id="XMLID_33_">
		<g id="curso">
			<path id="XMLID_2331_" style="fill:#71706E;" d="M109.8,238.8c0.2,0,0.4,0.1,0.5,0.2l1.5,1.6c-0.8,1-1.9,1.8-3.1,2.4
				c-1.2,0.6-2.7,0.8-4.4,0.8c-1.5,0-2.9-0.3-4.1-0.8s-2.3-1.2-3.1-2.2c-0.9-0.9-1.5-2-2-3.3s-0.7-2.7-0.7-4.2c0-1.6,0.3-3,0.8-4.3
				s1.2-2.4,2.2-3.3c0.9-0.9,2-1.7,3.3-2.2s2.7-0.8,4.3-0.8c1.5,0,2.9,0.2,4,0.7s2.1,1.1,2.9,1.9l-1.3,1.8c-0.1,0.1-0.2,0.2-0.3,0.3
				c-0.1,0.1-0.3,0.1-0.5,0.1s-0.4-0.1-0.7-0.3c-0.2-0.2-0.5-0.4-0.9-0.6s-0.8-0.4-1.3-0.6c-0.5-0.2-1.2-0.3-2-0.3
				c-1,0-1.9,0.2-2.7,0.5c-0.8,0.3-1.5,0.8-2.1,1.5c-0.6,0.6-1,1.4-1.4,2.3c-0.3,0.9-0.5,1.9-0.5,3c0,1.2,0.2,2.2,0.5,3.1
				c0.3,0.9,0.8,1.7,1.3,2.3c0.6,0.6,1.2,1.1,2,1.4s1.6,0.5,2.5,0.5c0.5,0,1,0,1.4-0.1s0.8-0.1,1.2-0.3c0.4-0.1,0.7-0.3,1-0.5
				s0.6-0.4,0.9-0.7c0.1-0.1,0.2-0.2,0.3-0.2C109.5,238.9,109.6,238.8,109.8,238.8"/>
			<path id="XMLID_2330_" style="fill:#71706E;" d="M123,240.6c0.7,0,1.4-0.1,2-0.4c0.6-0.2,1.1-0.6,1.5-1s0.7-1,0.9-1.6
				c0.2-0.6,0.3-1.4,0.3-2.1v-12.4h3.8v12.4c0,1.2-0.2,2.4-0.6,3.4s-1,1.9-1.7,2.7s-1.6,1.3-2.7,1.8c-1.1,0.4-2.2,0.6-3.6,0.6
				c-1.3,0-2.5-0.2-3.6-0.6c-1.1-0.4-2-1-2.7-1.8s-1.3-1.7-1.7-2.7c-0.4-1-0.6-2.2-0.6-3.4v-12.4h3.8v12.3c0,0.8,0.1,1.5,0.3,2.1
				c0.2,0.6,0.5,1.2,0.9,1.6c0.4,0.5,0.9,0.8,1.5,1C121.6,240.5,122.3,240.6,123,240.6"/>
			<path id="XMLID_2327_" style="fill:#71706E;" d="M139.5,235.6v8.1h-3.8v-20.6h6.3c1.4,0,2.6,0.1,3.6,0.4s1.8,0.7,2.5,1.2
				c0.6,0.5,1.1,1.1,1.4,1.9c0.3,0.7,0.4,1.5,0.4,2.4c0,0.7-0.1,1.4-0.3,2s-0.5,1.2-0.9,1.7s-0.9,0.9-1.4,1.3
				c-0.6,0.4-1.2,0.7-1.9,0.9c0.5,0.3,0.9,0.7,1.3,1.2l5.2,7.6h-3.5c-0.3,0-0.6-0.1-0.8-0.2c-0.2-0.1-0.4-0.3-0.6-0.6l-4.3-6.6
				c-0.2-0.2-0.3-0.4-0.5-0.5s-0.5-0.2-0.9-0.2C141.3,235.6,139.5,235.6,139.5,235.6z M139.5,232.9h2.4c0.7,0,1.4-0.1,1.9-0.3
				s1-0.4,1.3-0.7s0.6-0.7,0.8-1.1c0.2-0.4,0.3-0.9,0.3-1.4c0-1-0.3-1.9-1-2.4c-0.7-0.6-1.7-0.8-3.2-0.8h-2.5V232.9L139.5,232.9z"/>
			<path id="XMLID_2326_" style="fill:#71706E;" d="M165.3,226.8c-0.1,0.2-0.2,0.4-0.4,0.4c-0.1,0.1-0.3,0.1-0.5,0.1
				s-0.4-0.1-0.6-0.2c-0.2-0.1-0.5-0.3-0.8-0.5s-0.7-0.3-1.1-0.5c-0.4-0.1-0.9-0.2-1.5-0.2c-0.5,0-1,0.1-1.4,0.2
				c-0.4,0.1-0.7,0.3-1,0.5s-0.5,0.5-0.6,0.8s-0.2,0.7-0.2,1c0,0.5,0.1,0.9,0.4,1.2s0.6,0.6,1.1,0.8c0.4,0.2,1,0.4,1.5,0.6
				c0.6,0.2,1.2,0.4,1.7,0.6c0.6,0.2,1.2,0.4,1.7,0.7c0.6,0.3,1.1,0.6,1.5,1s0.8,0.9,1.1,1.5s0.4,1.3,0.4,2.2s-0.2,1.8-0.5,2.6
				s-0.8,1.5-1.4,2.1s-1.4,1.1-2.2,1.4c-0.9,0.3-1.9,0.5-3,0.5c-0.7,0-1.3-0.1-1.9-0.2c-0.6-0.1-1.2-0.3-1.8-0.5s-1.1-0.5-1.6-0.9
				c-0.5-0.3-1-0.7-1.4-1.1l1.1-1.8c0.1-0.1,0.2-0.2,0.4-0.3c0.1-0.1,0.3-0.1,0.5-0.1s0.5,0.1,0.8,0.3s0.6,0.4,1,0.6
				c0.4,0.2,0.8,0.5,1.3,0.6c0.5,0.2,1.1,0.3,1.8,0.3c1.1,0,1.9-0.3,2.5-0.8s0.9-1.3,0.9-2.2c0-0.5-0.1-1-0.4-1.3s-0.6-0.6-1.1-0.9
				c-0.4-0.2-1-0.4-1.5-0.6c-0.6-0.2-1.2-0.3-1.7-0.5c-0.6-0.2-1.2-0.4-1.7-0.7c-0.6-0.3-1.1-0.6-1.5-1s-0.8-1-1.1-1.6
				s-0.4-1.4-0.4-2.4c0-0.8,0.1-1.5,0.4-2.2c0.3-0.7,0.7-1.3,1.3-1.9c0.6-0.6,1.3-1,2.1-1.3s1.8-0.5,2.9-0.5c1.2,0,2.3,0.2,3.4,0.6
				c1,0.4,1.9,0.9,2.6,1.6L165.3,226.8z"/>
			<path id="XMLID_2311_" style="fill:#71706E;" d="M189.3,233.4c0,1.5-0.3,2.9-0.8,4.2s-1.2,2.4-2.1,3.3c-0.9,0.9-2,1.7-3.3,2.2
				s-2.7,0.8-4.3,0.8s-3-0.3-4.3-0.8s-2.4-1.3-3.3-2.2c-0.9-0.9-1.6-2.1-2.1-3.3c-0.5-1.3-0.8-2.7-0.8-4.2s0.3-2.9,0.8-4.2
				s1.2-2.4,2.1-3.3c0.9-0.9,2-1.7,3.3-2.2s2.7-0.8,4.3-0.8s3,0.3,4.3,0.8s2.4,1.3,3.3,2.2c0.9,0.9,1.6,2.1,2.1,3.3
				C189.1,230.5,189.3,231.9,189.3,233.4 M185.4,233.4c0-1.1-0.2-2.1-0.4-3c-0.3-0.9-0.7-1.7-1.3-2.3s-1.2-1.1-2-1.4
				c-0.8-0.3-1.7-0.5-2.7-0.5s-1.9,0.2-2.7,0.5s-1.5,0.8-2.1,1.4c-0.6,0.6-1,1.4-1.3,2.3c-0.3,0.9-0.5,1.9-0.5,3s0.2,2.1,0.5,3
				s0.7,1.7,1.3,2.3s1.3,1.1,2.1,1.4c0.8,0.3,1.7,0.5,2.7,0.5s1.9-0.2,2.7-0.5s1.5-0.8,2-1.4c0.6-0.6,1-1.4,1.3-2.3
				C185.2,235.5,185.4,234.5,185.4,233.4"/>
		</g>
		<g id="lassus">
			<path id="XMLID_2310_" style="fill:#71706E;" d="M90.9,348.5c-9.1-0.2-15.6-2.2-19.4-5.9c-3.8-3.7-5.7-9.5-5.7-17.3v-99l14.8-2.5
				V323c0,2.4,0.2,4.4,0.6,6s1.1,2.9,2.1,3.8c1,1,2.2,1.7,3.8,2.1c1.6,0.5,3.5,0.9,5.9,1.2L90.9,348.5z"/>
			<path id="XMLID_2307_" style="fill:#71706E;" d="M132.2,262.3c5.9,0,10.9,0.8,15,2.3s7.4,3.7,9.8,6.5c2.5,2.8,4.3,6.1,5.3,10
				c1.1,3.9,1.6,8.1,1.6,12.8v51.6c-1.3,0.2-3,0.5-5.3,0.9s-4.8,0.7-7.7,1s-6,0.6-9.3,0.9s-6.6,0.4-9.9,0.4c-4.7,0-8.9-0.5-12.9-1.4
				c-3.9-1-7.3-2.5-10.2-4.5c-2.9-2.1-5.1-4.8-6.7-8.2c-1.6-3.4-2.4-7.5-2.4-12.2c0-4.5,0.9-8.5,2.8-11.7c1.8-3.3,4.4-5.9,7.5-7.9
				c3.2-2,6.9-3.5,11.1-4.4c4.2-1,8.7-1.4,13.3-1.4c1.5,0,3,0.1,4.6,0.2c1.6,0.2,3.1,0.4,4.5,0.6c1.4,0.3,2.7,0.5,3.7,0.7
				c1.1,0.2,1.8,0.4,2.2,0.5v-4.1c0-2.4-0.3-4.8-0.8-7.2s-1.5-4.5-2.9-6.3s-3.3-3.3-5.6-4.4c-2.4-1.1-5.5-1.7-9.3-1.7
				c-4.9,0-9.1,0.3-12.8,1c-3.6,0.7-6.4,1.4-8.2,2.1l-1.7-12.2c1.9-0.8,5.1-1.7,9.5-2.5C122.2,262.6,127,262.3,132.2,262.3
				 M133.5,336.3c3.5,0,6.6-0.1,9.3-0.2c2.7-0.2,4.9-0.4,6.7-0.9v-24.6c-1.1-0.5-2.8-1-5.2-1.3c-2.4-0.4-5.3-0.6-8.6-0.6
				c-2.2,0-4.6,0.2-7.1,0.5s-4.8,1-6.8,2c-2.1,1-3.8,2.4-5.2,4.1c-1.4,1.7-2.1,4-2.1,6.9c0,5.3,1.7,9,5.1,11
				C123,335.1,127.6,336.3,133.5,336.3"/>
			<path id="XMLID_2306_" style="fill:#71706E;" d="M203.6,336.3c6,0,10.5-0.8,13.4-2.4s4.4-4.1,4.4-7.6c0-3.6-1.4-6.5-4.3-8.6
				s-7.6-4.5-14.1-7.1c-3.2-1.3-6.2-2.6-9.1-3.9s-5.4-2.9-7.5-4.7c-2.1-1.8-3.8-4-5.1-6.5s-1.9-5.7-1.9-9.4c0-7.3,2.7-13.1,8.1-17.4
				s12.7-6.4,22.1-6.4c2.3,0,4.7,0.1,7,0.4s4.5,0.6,6.5,1s3.8,0.8,5.3,1.2c1.5,0.4,2.7,0.8,3.6,1.1l-2.7,12.7
				c-1.6-0.8-4.1-1.7-7.5-2.6s-7.5-1.4-12.2-1.4c-4.1,0-7.7,0.8-10.8,2.5c-3.1,1.6-4.6,4.2-4.6,7.7c0,1.8,0.3,3.4,1,4.8
				s1.7,2.6,3.2,3.7c1.4,1.1,3.2,2.1,5.3,3.1s4.7,2,7.6,3c3.9,1.5,7.4,2.9,10.5,4.4c3.1,1.4,5.7,3.1,7.9,5s3.8,4.2,5,6.9
				c1.2,2.7,1.7,6,1.7,9.9c0,7.6-2.8,13.4-8.5,17.3s-13.7,5.9-24.2,5.9c-7.3,0-13-0.6-17.1-1.8c-4.1-1.2-6.9-2.1-8.4-2.8l2.7-12.7
				c1.7,0.6,4.4,1.6,8.1,2.9C192.5,335.6,197.5,336.3,203.6,336.3"/>
			<path id="XMLID_2305_" style="fill:#71706E;" d="M270.4,336.3c6,0,10.5-0.8,13.4-2.4c2.9-1.6,4.4-4.1,4.4-7.6
				c0-3.6-1.4-6.5-4.3-8.6c-2.9-2.1-7.6-4.5-14.1-7.1c-3.2-1.3-6.2-2.6-9.1-3.9c-2.9-1.3-5.4-2.9-7.5-4.7c-2.1-1.8-3.8-4-5.1-6.5
				s-1.9-5.7-1.9-9.4c0-7.3,2.7-13.1,8.1-17.4c5.4-4.3,12.7-6.4,22.1-6.4c2.3,0,4.7,0.1,7,0.4s4.5,0.6,6.5,1s3.8,0.8,5.3,1.2
				c1.5,0.4,2.7,0.8,3.6,1.1l-2.7,12.7c-1.6-0.8-4.1-1.7-7.5-2.6c-3.4-0.9-7.5-1.4-12.2-1.4c-4.1,0-7.7,0.8-10.8,2.5
				c-3.1,1.6-4.6,4.2-4.6,7.7c0,1.8,0.3,3.4,1,4.8s1.7,2.6,3.2,3.7c1.4,1.1,3.2,2.1,5.3,3.1c2.1,1,4.7,2,7.6,3
				c3.9,1.5,7.4,2.9,10.5,4.4c3.1,1.4,5.7,3.1,7.9,5c2.2,1.9,3.8,4.2,5,6.9c1.2,2.7,1.7,6,1.7,9.9c0,7.6-2.8,13.4-8.5,17.3
				s-13.7,5.9-24.2,5.9c-7.3,0-13-0.6-17.1-1.8c-4.1-1.2-6.9-2.1-8.4-2.8l2.7-12.7c1.7,0.6,4.4,1.6,8.1,2.9
				C259.3,335.6,264.3,336.3,270.4,336.3"/>
			<path id="XMLID_2304_" style="fill:#71706E;" d="M383.7,344.5c-3.4,0.8-7.9,1.7-13.4,2.7c-5.6,1-12,1.4-19.3,1.4
				c-6.3,0-11.7-0.9-16-2.8c-4.3-1.8-7.8-4.5-10.5-7.9c-2.6-3.4-4.6-7.4-5.7-12c-1.2-4.6-1.7-9.7-1.7-15.3v-46.2h14.8v43.2
				c0,10.1,1.6,17.2,4.8,21.6c3.2,4.3,8.5,6.5,16,6.5c1.6,0,3.2-0.1,4.9-0.2s3.3-0.2,4.8-0.4s2.8-0.3,4-0.5s2.1-0.3,2.6-0.6v-69.6
				h14.8L383.7,344.5L383.7,344.5z"/>
			<path id="XMLID_2303_" style="fill:#71706E;" d="M424.3,336.3c6,0,10.5-0.8,13.4-2.4c2.9-1.6,4.4-4.1,4.4-7.6
				c0-3.6-1.4-6.5-4.3-8.6c-2.9-2.1-7.6-4.5-14.1-7.1c-3.2-1.3-6.2-2.6-9.1-3.9c-2.9-1.3-5.4-2.9-7.5-4.7c-2.1-1.8-3.8-4-5.1-6.5
				c-1.3-2.5-1.9-5.7-1.9-9.4c0-7.3,2.7-13.1,8.1-17.4c5.4-4.3,12.7-6.4,22.1-6.4c2.3,0,4.7,0.1,7,0.4s4.5,0.6,6.5,1
				s3.8,0.8,5.3,1.2c1.5,0.4,2.7,0.8,3.6,1.1l-2.7,12.7c-1.6-0.8-4.1-1.7-7.5-2.6c-3.4-0.9-7.5-1.4-12.2-1.4
				c-4.1,0-7.7,0.8-10.8,2.5c-3.1,1.6-4.6,4.2-4.6,7.7c0,1.8,0.3,3.4,1,4.8s1.7,2.6,3.2,3.7c1.4,1.1,3.2,2.1,5.3,3.1s4.7,2,7.6,3
				c3.9,1.5,7.4,2.9,10.5,4.4c3.1,1.4,5.7,3.1,7.9,5s3.8,4.2,5,6.9c1.2,2.7,1.7,6,1.7,9.9c0,7.6-2.8,13.4-8.5,17.3
				s-13.7,5.9-24.2,5.9c-7.3,0-13-0.6-17.1-1.8c-4.1-1.2-6.9-2.1-8.4-2.8l2.7-12.7c1.7,0.6,4.4,1.6,8.1,2.9
				C413.3,335.6,418.2,336.3,424.3,336.3"/>
		</g>
		<g id="formas">
			<g id="XMLID_2300_">
				<path id="XMLID_2302_" style="fill:#4E9765;" d="M32.8,296.1c4-13.1,2.6-27.4-4.4-39.5L16,235.1H-2.5L32.8,296.1z"/>
				<path id="XMLID_2301_" style="fill:#4E9765;" d="M28.3,306.4c0.4-0.6,0.7-1.3,1-2l-40-69.3h-18.6L20,320.6L28.3,306.4z"/>
			</g>
			<g id="XMLID_2297_">
				<path id="XMLID_2299_" style="fill:#6AB27A;" d="M-2.8,204.8c-9.3-10-22.5-15.9-36.4-16h-24.5l-9.3,16H-2.8z"/>
				<path id="XMLID_2298_" style="fill:#6AB27A;" d="M12,228l-8.1-14.1c-0.4-0.7-0.8-1.3-1.2-1.9h-79.9l-9.3,16.1H12V228z"/>
			</g>
			<g id="XMLID_2294_">
				<path id="XMLID_2296_" style="fill:#DD8F5A;" d="M-98.9,327.1l-49.2-85.3l-8.2,14.2c-0.4,0.7-0.7,1.3-1.1,2l39.8,69h18.7
					C-98.9,327-98.9,327.1-98.9,327.1z"/>
				<path id="XMLID_2295_" style="fill:#DD8F5A;" d="M-125.8,327l-35-60.6c-4,13-2.6,27.4,4.4,39.5l12.2,21.2h18.4
					C-125.8,327.1-125.8,327-125.8,327z"/>
			</g>
			<g id="XMLID_2291_">
				<path id="XMLID_2293_" style="fill:#4F7BA5;" d="M-140.1,334.6l8.1,14.2c0.4,0.6,0.8,1.2,1.1,1.8H-51l9.3-16l-28.3-0.1h-70.1
					V334.6z"/>
				<path id="XMLID_2292_" style="fill:#4F7BA5;" d="M-79.7,373.8h15.4l9.3-16h-70.4c9.3,10,22.5,16,36.5,16H-79.7z"/>
			</g>
			<g id="XMLID_2288_">
				<path id="XMLID_2290_" style="fill:#5C8BC4;" d="M-28.6,372.6c13.4-3,25.2-11.5,32.2-23.6L16,327.6l-9.3-16L-28.6,372.6z"/>
				<path id="XMLID_2289_" style="fill:#5C8BC4;" d="M-39,373.9c0.5,0,1,0,1.5,0l40.2-69.3l-9.3-16.1l-49.5,85.4h6.7H-39z"/>
			</g>
			<g id="XMLID_2285_">
				<path id="XMLID_2287_" style="fill:#D88044;" d="M-99.5,190c-13.4,3-25.2,11.5-32.3,23.6l-12.3,21.4l9.3,16.1L-99.5,190z"/>
				<path id="XMLID_2286_" style="fill:#D88044;" d="M-89.4,188.8c-0.4,0-0.8,0-1.1,0l-40.3,69.3l9.3,16.1l49.5-85.4h-2.2
					L-89.4,188.8L-89.4,188.8z"/>
			</g>
		</g>
	</g>
</g>
<g id="Camada_2">
</g>
</svg>
