<svg viewBox="0 0 39.8 47.8">
<g id="XMLID_13_">
	<path id="XMLID_1190_" fill="#535252" d="M39.1,10.3l-8.8-10C30.1,0.1,29.8,0,29.5,0L7.2,0.1c-2.5,0-4.5,2-4.5,4.5v22.1h1.5V6
		c0-2.4,1.8-4.3,4.1-4.3H28c0.3,0,0.5,0.2,0.5,0.5l0.2,8.7l8.1,0.2c0.5,0,1,0.4,1,1v30c0,2.4-1.8,4.3-4.1,4.3H8.3
		c-2.3,0-4.1-1.9-4.1-4.3v-3.8H2.7v4.9c0,2.5,2,4.5,4.5,4.5h27.9c2.5,0,4.5-2,4.5-4.5l0.1-31C39.8,11.5,39.6,10.9,39.1,10.3z"/>
	<path id="XMLID_780_" fill="#535252" d="M17.8,37.2h4.3l5.4-9.2h-9.7H1.1C0.5,28,0,28.5,0,29v7.1c0,0.6,0.5,1.1,1.1,1.1h12.2H17.8z
		 M15.9,30.3h3.2v0.9H17v1.3h1.7v0.9H17v2h-1.2V30.3z M8.7,32.6c-0.1,0.2-0.2,0.4-0.4,0.5c-0.2,0.1-0.4,0.3-0.6,0.4
		c-0.3,0.1-0.6,0.1-0.9,0.1H6.2v1.7H5v-5h1.8c0.4,0,0.7,0,0.9,0.1c0.3,0.1,0.5,0.2,0.6,0.3c0.2,0.1,0.3,0.3,0.4,0.5
		c0.1,0.2,0.1,0.4,0.1,0.6C8.8,32.1,8.8,32.4,8.7,32.6z M12,35.3h-2v-5h2c0.4,0,0.7,0.1,1.1,0.2c0.3,0.1,0.6,0.3,0.8,0.5
		c0.2,0.2,0.4,0.5,0.5,0.8c0.1,0.3,0.2,0.6,0.2,1c0,0.4-0.1,0.7-0.2,1c-0.1,0.3-0.3,0.6-0.5,0.8c-0.2,0.2-0.5,0.4-0.8,0.5
		C12.8,35.2,12.4,35.3,12,35.3z"/>
	<path id="XMLID_779_" fill="#535252" d="M13.1,31.6c-0.1-0.1-0.3-0.2-0.4-0.3c-0.2-0.1-0.4-0.1-0.6-0.1h-0.8v3.2H12
		c0.2,0,0.4,0,0.6-0.1c0.2-0.1,0.3-0.2,0.4-0.3c0.1-0.1,0.2-0.3,0.3-0.5c0.1-0.2,0.1-0.4,0.1-0.7c0-0.2,0-0.5-0.1-0.7
		C13.3,31.9,13.2,31.7,13.1,31.6z"/>
	<path id="XMLID_778_" fill="#535252" d="M7.4,31.3c-0.1-0.1-0.2-0.1-0.3-0.2c-0.1,0-0.2-0.1-0.4-0.1H6.2v1.6h0.6
		c0.3,0,0.5-0.1,0.7-0.2c0.1-0.1,0.2-0.3,0.2-0.6c0-0.1,0-0.2-0.1-0.3C7.6,31.5,7.5,31.4,7.4,31.3z"/>
	<rect id="XMLID_777_" x="8.4" y="17.3" fill="#535252" width="25.6" height="1.3"/>
	<rect id="XMLID_774_" x="8.4" y="21.8" fill="#535252" width="21.3" height="1.3"/>
</g>
</svg>
