<?xml version="1.0" encoding="utf-8"?>
<!-- Generator: Adobe Illustrator 19.0.0, SVG Export Plug-In . SVG Version: 6.00 Build 0)  -->
<svg version="1.1" id="Camada_1" xmlns="http://www.w3.org/2000/svg" xmlns:xlink="http://www.w3.org/1999/xlink" x="0px" y="0px"
	 viewBox="-166 186.6 201 189.4" style="enable-background:new -166 186.6 201 189.4;" xml:space="preserve">
<style type="text/css">
	.st0{fill:#4E9765;}
	.st1{fill:#6AB27A;}
	.st2{fill:#DD8F5A;}
	.st3{fill:#4F7BA5;}
	.st4{fill:#5C8BC4;}
	.st5{fill:#D88044;}
</style>
<g id="Camada_1_1_">
	<g id="XMLID_33_">
		<g id="XMLID_2284_">
			<g id="XMLID_2300_">
				<path id="XMLID_2302_" class="st0" d="M31.3,296.1c4-13.1,2.6-27.4-4.4-39.5l-12.4-21.5H-4L31.3,296.1z"/>
				<path id="XMLID_2301_" class="st0" d="M26.8,306.4c0.4-0.6,0.7-1.3,1-2l-40-69.3h-18.6l49.3,85.5L26.8,306.4z"/>
			</g>
			<g id="XMLID_2297_">
				<path id="XMLID_2299_" class="st1" d="M-4.3,204.8c-9.3-10-22.5-15.9-36.4-16h-24.5l-9.3,16H-4.3z"/>
				<path id="XMLID_2298_" class="st1" d="M10.5,228l-8.1-14.1c-0.4-0.7-0.8-1.3-1.2-1.9h-79.9l-9.3,16.1h98.5V228z"/>
			</g>
			<g id="XMLID_2294_">
				<path id="XMLID_2296_" class="st2" d="M-100.4,327.1l-49.2-85.3l-8.2,14.2c-0.4,0.7-0.7,1.3-1.1,2l39.8,69h18.7
					C-100.4,327-100.4,327.1-100.4,327.1z"/>
				<path id="XMLID_2295_" class="st2" d="M-127.3,327l-35-60.6c-4,13-2.6,27.4,4.4,39.5l12.2,21.2h18.4
					C-127.3,327.1-127.3,327-127.3,327z"/>
			</g>
			<g id="XMLID_2291_">
				<path id="XMLID_2293_" class="st3" d="M-141.6,334.6l8.1,14.2c0.4,0.6,0.8,1.2,1.1,1.8h79.9l9.3-16l-28.3-0.1h-70.1V334.6z"/>
				<path id="XMLID_2292_" class="st3" d="M-81.2,373.8h15.4l9.3-16h-70.4c9.3,10,22.5,16,36.5,16H-81.2z"/>
			</g>
			<g id="XMLID_2288_">
				<path id="XMLID_2290_" class="st4" d="M-30.1,372.6c13.4-3,25.2-11.5,32.2-23.6l12.4-21.4l-9.3-16L-30.1,372.6z"/>
				<path id="XMLID_2289_" class="st4" d="M-40.5,373.9c0.5,0,1,0,1.5,0l40.2-69.3l-9.3-16.1l-49.5,85.4h6.7H-40.5z"/>
			</g>
			<g id="XMLID_2285_">
				<path id="XMLID_2287_" class="st5" d="M-101,190c-13.4,3-25.2,11.5-32.3,23.6l-12.3,21.4l9.3,16.1L-101,190z"/>
				<path id="XMLID_2286_" class="st5" d="M-90.9,188.8c-0.4,0-0.8,0-1.1,0l-40.3,69.3l9.3,16.1l49.5-85.4h-2.2L-90.9,188.8
					L-90.9,188.8z"/>
			</g>
		</g>
	</g>
</g>
<g id="Camada_2">
</g>
</svg>
