<?xml version="1.0" encoding="utf-8"?>
<!-- Generator: Adobe Illustrator 19.0.0, SVG Export Plug-In . SVG Version: 6.00 Build 0)  -->
<svg version="1.1" id="Camada_1" xmlns="http://www.w3.org/2000/svg" xmlns:xlink="http://www.w3.org/1999/xlink" x="0px" y="0px"
	 viewBox="0 0 549.5 168.8" style="enable-background:new 0 0 549.5 168.8;" xml:space="preserve">
<style type="text/css">
	.st0{fill:#D55F37;}
	.st1{fill:#212D70;}
</style>
<circle id="XMLID_79_" class="st0" cx="543.6" cy="162.9" r="5.8"/>
<circle id="XMLID_78_" class="st0" cx="5.8" cy="5.8" r="5.8"/>
<path id="XMLID_76_" class="st1" d="M387.8,22.1l0.6,5.3c5.6-4.2,10.8-6.3,15.6-6.3c3.2,0,5.6,0.9,7.3,2.6c1.7,1.7,2.6,4.2,2.6,7.4
	v27h-9V33.8c0-2-0.3-3.4-0.8-4.1c-0.5-0.7-1.5-1.1-3-1.1c-1.7,0-3.4,0.3-5.1,1c-1.7,0.7-4,1.8-6.7,3.4v25h-9v-36H387.8z"/>
<path id="XMLID_73_" class="st1" d="M441.7,21.1c6.5,0,11,1.4,13.7,4.3c2.7,2.9,4,7.8,4,14.7s-1.3,11.8-4,14.7
	c-2.7,2.9-7.2,4.3-13.7,4.3c-6.5,0-11.1-1.4-13.8-4.3c-2.7-2.9-4-7.7-4-14.7s1.3-11.8,4-14.7C430.6,22.5,435.2,21.1,441.7,21.1z
	 M441.7,28.2c-3.3,0-5.6,0.8-6.8,2.5c-1.2,1.6-1.8,4.8-1.8,9.4c0,4.6,0.6,7.7,1.8,9.4c1.2,1.6,3.4,2.5,6.8,2.5
	c3.2,0,5.4-0.8,6.6-2.5c1.2-1.6,1.8-4.8,1.8-9.4c0-4.7-0.6-7.8-1.8-9.4C447.2,29,445,28.2,441.7,28.2z"/>
<path id="XMLID_70_" class="st1" d="M65.2,112.6H50.5c0.3,3.1,1.2,5.2,2.6,6.3c1.4,1.1,3.7,1.6,7,1.6c3.7,0,8-0.3,12.9-0.9l0.8,5.7
	c-3.4,1.6-8.3,2.4-14.8,2.4c-6.5,0-11.1-1.4-13.9-4.3c-2.7-2.9-4.1-7.8-4.1-14.6c0-7,1.3-11.9,4-14.7c2.7-2.8,7.1-4.2,13.4-4.2
	c5.7,0,9.9,1,12.5,3.1c2.6,2.1,3.9,5.2,3.9,9.4C74.8,109.2,71.6,112.6,65.2,112.6z M50.3,106.3h12.3c2.2,0,3.2-1.4,3.2-4.2
	c0-2-0.5-3.3-1.5-4.1c-1-0.8-2.9-1.2-5.6-1.2c-3.1,0-5.3,0.6-6.5,1.9C51.1,100.1,50.4,102.6,50.3,106.3z"/>
<path id="XMLID_68_" class="st1" d="M92.2,90.8l0.6,5.3c5.6-4.2,10.8-6.3,15.6-6.3c3.2,0,5.6,0.9,7.3,2.6c1.7,1.7,2.6,4.2,2.6,7.4
	v27h-9v-24.3c0-2-0.3-3.4-0.8-4.1c-0.5-0.7-1.5-1.1-3-1.1c-1.7,0-3.4,0.3-5.1,1c-1.7,0.7-4,1.8-6.7,3.4v25h-9v-36H92.2z"/>
<path id="XMLID_66_" class="st1" d="M146,113.2l-9.5-2.6c-3.1-0.9-5.3-2.1-6.6-3.7c-1.2-1.6-1.9-3.9-1.9-6.8c0-3.9,1.1-6.5,3.3-8
	c2.2-1.5,6-2.2,11.4-2.2c5.9,0.1,11.2,0.5,15.9,1.3l-0.7,6.2c-6.1-0.2-10.7-0.3-13.7-0.3c-3.2,0-5.3,0.2-6.2,0.5
	c-0.9,0.3-1.4,1.2-1.4,2.6c0,0.3,0,0.7,0.1,1c0.1,0.3,0.1,0.5,0.2,0.7c0,0.2,0.2,0.4,0.4,0.6c0.2,0.2,0.4,0.3,0.5,0.4
	c0.1,0.1,0.3,0.2,0.7,0.4c0.4,0.1,0.7,0.2,0.8,0.3c0.1,0,0.5,0.1,1,0.3c0.5,0.1,0.9,0.2,1.2,0.3l9.7,2.6c3.1,0.9,5.3,2.1,6.6,3.6
	c1.3,1.5,2,3.8,2,6.8c0,4.2-1.2,7-3.6,8.5c-2.4,1.4-6.6,2.2-12.5,2.2c-5.4,0-10.4-0.4-15.1-1.2l0.6-6.2c2.5,0.2,6.6,0.3,12.3,0.3
	c3.9,0,6.5-0.2,7.7-0.7c1.3-0.4,1.9-1.4,1.9-2.8c0-0.3,0-0.6-0.1-0.8c0-0.2-0.1-0.5-0.2-0.7c-0.1-0.2-0.2-0.4-0.3-0.5
	c-0.1-0.1-0.3-0.3-0.5-0.4c-0.2-0.1-0.4-0.3-0.6-0.3c-0.1-0.1-0.4-0.2-0.8-0.3c-0.4-0.1-0.6-0.2-0.8-0.3c-0.2,0-0.5-0.1-1-0.3
	C146.5,113.3,146.1,113.2,146,113.2z"/>
<path id="XMLID_60_" class="st1" d="M178.9,126.8H170v-36h8.9V126.8z"/>
<path id="XMLID_46_" class="st1" d="M198.5,90.8l0.6,5.3c5.6-4.2,10.8-6.3,15.6-6.3c3.2,0,5.6,0.9,7.3,2.6c1.7,1.7,2.6,4.2,2.6,7.4
	v27h-9v-24.3c0-2-0.3-3.4-0.8-4.1c-0.5-0.7-1.5-1.1-3-1.1c-1.7,0-3.4,0.3-5.1,1c-1.7,0.7-4,1.8-6.7,3.4v25h-9v-36H198.5z"/>
<path id="XMLID_43_" class="st1" d="M252.4,89.8c6.5,0,11,1.4,13.7,4.3c2.7,2.9,4,7.8,4,14.7s-1.3,11.8-4,14.7
	c-2.7,2.9-7.2,4.3-13.7,4.3c-6.5,0-11.1-1.4-13.8-4.3c-2.7-2.9-4-7.7-4-14.7s1.3-11.8,4-14.7C241.3,91.3,245.9,89.8,252.4,89.8z
	 M252.4,96.9c-3.3,0-5.6,0.8-6.8,2.5c-1.2,1.6-1.8,4.8-1.8,9.4c0,4.6,0.6,7.7,1.8,9.4c1.2,1.6,3.4,2.5,6.8,2.5
	c3.2,0,5.4-0.8,6.6-2.5c1.2-1.6,1.8-4.8,1.8-9.4c0-4.7-0.6-7.8-1.8-9.4C257.8,97.8,255.6,96.9,252.4,96.9z"/>
<path id="XMLID_41_" class="st1" d="M331,90.8l-12.3,33.9c-0.5,1.4-1.5,2.1-3,2.1h-7.8c-1.6,0-2.5-0.7-2.9-2.1l-12.3-33.9h9.4
	l7.5,23.7c1.1,3.8,1.7,5.9,1.8,6.2h1l1.9-6.2l7.4-23.7H331z"/>
<path id="XMLID_39_" class="st1" d="M347.8,126.8h-8.9v-36h8.9V126.8z"/>
<path id="XMLID_37_" class="st1" d="M384.3,89.8l-1,8.4h-2.6c-2.5,0-6.5,1.1-11.9,3.2v25.4h-9v-36h7l0.8,5.3
	c5.1-4.2,10.1-6.3,14.8-6.3H384.3z"/>
<path id="XMLID_35_" class="st1" d="M404.1,97.3v18.3c0,1.6,0.3,2.7,1,3.3c0.6,0.6,1.8,0.9,3.4,0.9h4.9l1,6.6
	c-2.6,0.8-5.7,1.2-9.3,1.2c-3.1,0-5.5-0.9-7.2-2.7c-1.7-1.8-2.5-4.4-2.5-7.8V97.3h-6.5v-6.1l6.5-0.4V80.5h8.9v10.4h10.6v6.5H404.1z"
	/>
<path id="XMLID_33_" class="st1" d="M455.8,90.8v36h-7.1l-0.7-4.8c-5.1,3.9-10.1,5.8-15.1,5.8c-6.7,0-10-3.3-10-10v-27h9v24.3
	c0,1.9,0.2,3.2,0.9,4c0.6,0.7,1.8,1.1,3.5,1.1c2.4,0,5.9-1.3,10.5-4V90.8H455.8z"/>
<path id="XMLID_30_" class="st1" d="M468.3,97.9l-0.9-6.3c6.3-1.2,12.3-1.8,18-1.8c4.7,0,8.1,0.9,10.2,2.8c2.2,1.9,3.3,5.1,3.3,9.8
	v24.5h-7.1l-1-5.5c-3.8,4.2-8.3,6.3-13.7,6.3c-3.4,0-6.1-0.9-8.2-2.8c-2.1-1.8-3.2-4.4-3.2-7.7v-3.7c0-2.9,0.9-5.1,2.8-6.7
	c1.9-1.6,4.5-2.4,7.9-2.4H490v-2.2c0-2.1-0.5-3.4-1.4-4.1c-0.9-0.7-2.6-1-5.2-1C479.6,97.2,474.6,97.4,468.3,97.9z M474.7,114.6v1.4
	c0,2.9,1.6,4.4,4.7,4.4c3.6,0,7.1-1.4,10.6-4.3v-5.6h-11.5c-1.4,0-2.4,0.4-3,1.1C475,112.4,474.7,113.4,474.7,114.6z"/>
<path id="XMLID_28_" class="st1" d="M519.5,75.4v40.2c0,1.4,0.3,2.5,1,3.2c0.7,0.7,1.8,1,3.3,1h3.1l1,6.6c-1.7,0.8-4.2,1.2-7.6,1.2
	c-3,0-5.4-0.9-7.1-2.6c-1.7-1.7-2.6-4.1-2.6-7.3V75.4H519.5z"/>
<path id="XMLID_26_" class="st0" d="M52,59.1H41.1V22.4H52V59.1z"/>
<path id="XMLID_24_" class="st0" d="M70.3,22.4l0.8,5.4c5.3-4.3,10.5-6.5,15.7-6.5c3.3,0,5.9,0.9,7.6,2.6c1.8,1.7,2.6,4.3,2.6,7.6
	v27.5H86.1V35c0-1.6-0.3-2.8-0.8-3.4c-0.5-0.6-1.5-0.9-2.8-0.9c-2.3,0-5.7,1.1-10.2,3.3v25.1h-11V22.4H70.3z"/>
<path id="XMLID_21_" class="st0" d="M123.2,21.3c6.8,0,11.7,1.5,14.5,4.4c2.9,3,4.3,8,4.3,15c0,7-1.4,12-4.3,14.9
	c-2.9,2.9-7.7,4.4-14.5,4.4c-6.9,0-11.8-1.5-14.6-4.4s-4.3-7.9-4.3-14.9c0-7.1,1.4-12.1,4.3-15S116.3,21.3,123.2,21.3z M123.2,29.6
	c-2.9,0-4.9,0.7-5.9,2.2s-1.5,4.5-1.5,8.9c0,4.4,0.5,7.3,1.5,8.8s3,2.2,5.9,2.2c2.8,0,4.8-0.7,5.8-2.2c1-1.5,1.5-4.4,1.5-8.8
	c0-4.4-0.5-7.4-1.5-8.9C128,30.4,126.1,29.6,123.2,29.6z"/>
<path id="XMLID_19_" class="st0" d="M185.7,22.4l-12.1,34.1c-0.6,1.7-1.8,2.6-3.6,2.6h-9.5c-1.8,0-3-0.9-3.6-2.6l-12.1-34.1h11.7
	l6.6,23c0.5,2,1.1,4.2,1.6,6.5h1l1.7-6.5l6.6-23H185.7z"/>
<path id="XMLID_16_" class="st0" d="M191.2,30.6l-1-7.4c6.6-1.2,13-1.8,19.1-1.8c5,0,8.6,1,10.9,3c2.3,2,3.5,5.5,3.5,10.5v24.3H215
	l-1.1-5.6c-3.7,4.3-8.2,6.5-13.5,6.5c-3.5,0-6.4-0.9-8.6-2.8s-3.3-4.5-3.3-7.8v-3.7c0-2.9,1-5.2,3-6.8c2-1.6,4.7-2.5,8.3-2.5h13.1
	v-1.6c-0.1-1.9-0.5-3.1-1.3-3.8c-0.8-0.6-2.4-1-4.7-1C202.6,30,197.4,30.2,191.2,30.6z M199.2,46.5v1.4c0,2.5,1.4,3.8,4.3,3.8
	c3,0,6-1.2,9.2-3.6V43h-9.9C200.4,43,199.2,44.2,199.2,46.5z"/>
<path id="XMLID_13_" class="st0" d="M262.5,50.4l1,7.1c-3.8,1.6-8.5,2.5-14.2,2.5c-6.7,0-11.5-1.5-14.3-4.4s-4.1-7.9-4.1-14.9
	c0-7.1,1.4-12.1,4.2-15c2.8-2.9,7.6-4.4,14.4-4.4c5.6,0,10.1,0.8,13.5,2.3l-1.2,6.8c-5.4-0.1-8.9-0.1-10.5-0.1c-3.4,0-5.7,0.7-7,2.2
	c-1.3,1.4-1.9,4.2-1.9,8.2c0,4,0.6,6.7,1.9,8.2c1.3,1.4,3.6,2.2,7,2.2C255.5,51,259.3,50.8,262.5,50.4z M243.1,67.2l1.1-4.3
	c4.1-0.4,6.9-0.4,8.5,0.2c1.6,0.6,2.3,2.1,2.2,4.6c-0.1,3.6-1.6,6.3-4.4,8.1c-2.8,1.8-6.3,2.4-10.5,1.9l1.4-4.8c1.8,0,3.3-0.3,4.5-1
	c1.2-0.7,1.8-1.8,1.9-3.3c0-0.6-0.2-1-0.8-1.2C246.5,67.3,245.2,67.2,243.1,67.2z"/>
<path id="XMLID_9_" class="st0" d="M271.1,30.6l-1-7.4c6.6-1.2,13-1.8,19.1-1.8c5,0,8.6,1,10.9,3c2.3,2,3.5,5.5,3.5,10.5v24.3h-8.7
	l-1.1-5.6c-3.7,4.3-8.2,6.5-13.5,6.5c-3.5,0-6.4-0.9-8.6-2.8s-3.3-4.5-3.3-7.8v-3.7c0-2.9,1-5.2,3-6.8c2-1.6,4.7-2.5,8.3-2.5h13.1
	v-1.6c-0.1-1.9-0.5-3.1-1.3-3.8c-0.8-0.6-2.4-1-4.7-1C282.5,30,277.3,30.2,271.1,30.6z M278.4,16.3h-4.7c-0.5-3.5-0.2-6.1,1-8
	c1.2-1.8,2.9-2.7,5-2.5c1.8,0.1,3.9,0.7,6.4,1.7c2.5,1,4.3,1.6,5.5,1.8c1.2,0.2,2,0,2.3-0.4c0.3-0.5,0.5-1.4,0.5-2.8h4.8
	c0.5,3.4,0.1,6-1,7.8c-1.2,1.9-2.9,2.7-5.1,2.6c-1.9-0.1-4.1-0.8-6.7-1.8c-2.6-1.1-4.3-1.7-5.2-1.8c-1.2-0.1-2,0-2.3,0.5
	C278.6,13.9,278.4,14.9,278.4,16.3z M279.1,46.5v1.4c0,2.5,1.4,3.8,4.3,3.8c3,0,6-1.2,9.2-3.6V43h-9.9
	C280.3,43,279.1,44.2,279.1,46.5z"/>
<path id="XMLID_6_" class="st0" d="M329.7,21.3c6.8,0,11.7,1.5,14.5,4.4c2.9,3,4.3,8,4.3,15c0,7-1.4,12-4.3,14.9
	c-2.9,2.9-7.7,4.4-14.5,4.4c-6.9,0-11.8-1.5-14.6-4.4s-4.3-7.9-4.3-14.9c0-7.1,1.4-12.1,4.3-15S322.8,21.3,329.7,21.3z M329.7,29.6
	c-2.9,0-4.9,0.7-5.9,2.2s-1.5,4.5-1.5,8.9c0,4.4,0.5,7.3,1.5,8.8s3,2.2,5.9,2.2c2.8,0,4.8-0.7,5.8-2.2s1.5-4.4,1.5-8.8
	c0-4.4-0.5-7.4-1.5-8.9C334.5,30.4,332.5,29.6,329.7,29.6z"/>
<g id="XMLID_4_">
	<path id="XMLID_5_" class="st1" d="M1.3,26.1c0,20.9,0,43.9,0,64.8c0,13.5,0,26.9,0,40.4c0,8-1.1,17.3,2.9,24.5
		c7.2,12.9,20.6,11.6,32.9,11.6c16.3,0,32.7,0,49,0c54,0,108-0.1,162-0.1c59.8,0,229.5,0.2,273.8-0.1c0.4,0,0.9,0,1.3,0
		c5.8,0,5.8-9,0-9c-24.8,0-58.6,0-83.4,0c-54.9,0-385.3,0.5-415.6,0.2c-10-0.1-14.1-7.9-14.1-16.8c0-10.1,0-20.3,0-30.4
		c0-26,0-54,0-80c0-1.7,0-3.4,0-5.1C10.3,20.4,1.3,20.3,1.3,26.1L1.3,26.1z"/>
</g>
</svg>
