<?xml version="1.0" encoding="utf-8"?>
<!-- Generator: Adobe Illustrator 19.0.0, SVG Export Plug-In . SVG Version: 6.00 Build 0)  -->
<svg version="1.1" id="Camada_1" xmlns="http://www.w3.org/2000/svg" xmlns:xlink="http://www.w3.org/1999/xlink" x="0px" y="0px"
	 viewBox="-357.2 266.9 41.1 29.1" style="enable-background:new -357.2 266.9 41.1 29.1;" xml:space="preserve">
<style type="text/css">
	.st0{fill:#535252;}
</style>
<g id="XMLID_3_">
	<g id="linhas">
		<g id="XMLID_1756_">
			<g id="XMLID_1757_">
				<path id="XMLID_1758_" class="st0" d="M-355.3,270.7c0.3,0,0.7,0,1,0c0.9,0,1.8,0,2.7,0c1.3,0,2.7,0,4,0c1.6,0,3.3,0,4.9,0
					c1.8,0,3.6,0,5.4,0s3.6,0,5.4,0c1.7,0,3.4,0,5,0c1.4,0,2.8,0,4.3,0c1,0,2,0,3.1,0c0.5,0,1,0,1.4,0c0,0,0,0,0.1,0
					c1,0,2-0.9,1.9-1.9c0-1.1-0.9-1.9-1.9-1.9c-0.3,0-0.7,0-1,0c-0.9,0-1.8,0-2.7,0c-1.3,0-2.7,0-4,0c-1.6,0-3.3,0-4.9,0
					c-1.8,0-3.6,0-5.4,0s-3.6,0-5.4,0c-1.7,0-3.4,0-5,0c-1.4,0-2.8,0-4.3,0c-1,0-2,0-3.1,0c-0.5,0-1,0-1.4,0c0,0,0,0-0.1,0
					c-1,0-2,0.9-1.9,1.9C-357.2,269.8-356.4,270.7-355.3,270.7L-355.3,270.7z"/>
			</g>
		</g>
		<g id="XMLID_1753_">
			<g id="XMLID_1754_">
				<path id="XMLID_1755_" class="st0" d="M-355.3,283.3c0.9,0,1.8,0,2.8,0c2.2,0,4.4,0,6.6,0c2.7,0,5.3,0,8,0c2.3,0,4.6,0,6.9,0
					c1.1,0,2.2,0,3.3,0l0,0c1,0,2-0.9,1.9-1.9c0-1.1-0.9-1.9-1.9-1.9c-0.9,0-1.8,0-2.8,0c-2.2,0-4.4,0-6.6,0c-2.7,0-5.3,0-8,0
					c-2.3,0-4.6,0-6.9,0c-1.1,0-2.2,0-3.3,0l0,0c-1,0-2,0.9-1.9,1.9C-357.2,282.4-356.4,283.3-355.3,283.3L-355.3,283.3z"/>
			</g>
		</g>
		<g id="XMLID_1750_">
			<g id="XMLID_1751_">
				<path id="XMLID_1752_" class="st0" d="M-355.3,296c0.6,0,1.2,0,1.8,0c1.4,0,2.8,0,4.3,0c1.7,0,3.4,0,5.2,0c1.5,0,3,0,4.4,0
					c0.7,0,1.4,0,2.2,0l0,0c1,0,2-0.9,1.9-1.9c0-1.1-0.9-1.9-1.9-1.9c-0.6,0-1.2,0-1.8,0c-1.4,0-2.8,0-4.3,0c-1.7,0-3.4,0-5.2,0
					c-1.5,0-3,0-4.4,0c-0.7,0-1.4,0-2.2,0l0,0c-1,0-2,0.9-1.9,1.9C-357.2,295.1-356.4,296-355.3,296L-355.3,296z"/>
			</g>
		</g>
	</g>
</g>
</svg>
