<?xml version="1.0" encoding="utf-8"?>
<!-- Generator: Adobe Illustrator 19.0.0, SVG Export Plug-In . SVG Version: 6.00 Build 0)  -->
<svg version="1.1" id="Camada_1" xmlns="http://www.w3.org/2000/svg" xmlns:xlink="http://www.w3.org/1999/xlink" x="0px" y="0px"
	 viewBox="-425 266.9 108.9 29.1" style="enable-background:new -425 266.9 108.9 29.1;" xml:space="preserve">
<style type="text/css">
	.st0{fill:#535252;}
	.st1{enable-background:new    ;}
	.st2{fill:#282828;}
</style>
<g id="XMLID_3_">
	<g id="linhas">
		<g id="XMLID_1756_">
			<g id="XMLID_1757_">
				<path id="XMLID_1758_" class="st0" d="M-355.3,270.7c0.3,0,0.7,0,1,0c0.9,0,1.8,0,2.7,0c1.3,0,2.7,0,4,0c1.6,0,3.3,0,4.9,0
					c1.8,0,3.6,0,5.4,0s3.6,0,5.4,0c1.7,0,3.4,0,5,0c1.4,0,2.8,0,4.3,0c1,0,2,0,3.1,0c0.5,0,1,0,1.4,0c0,0,0,0,0.1,0
					c1,0,2-0.9,1.9-1.9c0-1.1-0.9-1.9-1.9-1.9c-0.3,0-0.7,0-1,0c-0.9,0-1.8,0-2.7,0c-1.3,0-2.7,0-4,0c-1.6,0-3.3,0-4.9,0
					c-1.8,0-3.6,0-5.4,0s-3.6,0-5.4,0c-1.7,0-3.4,0-5,0c-1.4,0-2.8,0-4.3,0c-1,0-2,0-3.1,0c-0.5,0-1,0-1.4,0c0,0,0,0-0.1,0
					c-1,0-2,0.9-1.9,1.9C-357.2,269.8-356.4,270.7-355.3,270.7L-355.3,270.7z"/>
			</g>
		</g>
		<g id="XMLID_1753_">
			<g id="XMLID_1754_">
				<path id="XMLID_1755_" class="st0" d="M-355.3,283.3c0.9,0,1.8,0,2.8,0c2.2,0,4.4,0,6.6,0c2.7,0,5.3,0,8,0c2.3,0,4.6,0,6.9,0
					c1.1,0,2.2,0,3.3,0l0,0c1,0,2-0.9,1.9-1.9c0-1.1-0.9-1.9-1.9-1.9c-0.9,0-1.8,0-2.8,0c-2.2,0-4.4,0-6.6,0c-2.7,0-5.3,0-8,0
					c-2.3,0-4.6,0-6.9,0c-1.1,0-2.2,0-3.3,0l0,0c-1,0-2,0.9-1.9,1.9C-357.2,282.4-356.4,283.3-355.3,283.3L-355.3,283.3z"/>
			</g>
		</g>
		<g id="XMLID_1750_">
			<g id="XMLID_1751_">
				<path id="XMLID_1752_" class="st0" d="M-355.3,296c0.6,0,1.2,0,1.8,0c1.4,0,2.8,0,4.3,0c1.7,0,3.4,0,5.2,0c1.5,0,3,0,4.4,0
					c0.7,0,1.4,0,2.2,0l0,0c1,0,2-0.9,1.9-1.9c0-1.1-0.9-1.9-1.9-1.9c-0.6,0-1.2,0-1.8,0c-1.4,0-2.8,0-4.3,0c-1.7,0-3.4,0-5.2,0
					c-1.5,0-3,0-4.4,0c-0.7,0-1.4,0-2.2,0l0,0c-1,0-2,0.9-1.9,1.9C-357.2,295.1-356.4,296-355.3,296L-355.3,296z"/>
			</g>
		</g>
	</g>
	<g id="MENU" class="st1">
		<path class="st2" d="M-419.7,282.8c0-0.1,0.1-0.2,0.1-0.2c0-0.1,0.1-0.2,0.1-0.2l4.2-7.4c0-0.1,0.1-0.1,0.1-0.1s0.1,0,0.2,0h0.5
			v10.6h-0.7v-9c0-0.1,0-0.3,0-0.4l-4.2,7.4c-0.1,0.1-0.2,0.2-0.3,0.2h-0.1c-0.1,0-0.2-0.1-0.3-0.2l-4.3-7.4c0,0.1,0,0.3,0,0.4v9
			h-0.7v-10.6h0.5c0.1,0,0.1,0,0.2,0l0.1,0.1l4.3,7.4C-419.9,282.5-419.8,282.7-419.7,282.8z"/>
		<path class="st2" d="M-405,274.8v0.6h-5.6v4.3h4.6v0.6h-4.6v4.4h5.6v0.6h-6.4v-10.6h6.4V274.8z"/>
		<path class="st2" d="M-402,274.9l0.1,0.1l6.9,9.2c0-0.1,0-0.3,0-0.4v-8.9h0.7v10.6h-0.4c-0.1,0-0.2,0-0.3-0.2l-6.9-9.2
			c0,0.2,0,0.3,0,0.4v8.9h-0.7v-10.6h0.4C-402.1,274.8-402,274.9-402,274.9z"/>
		<path class="st2" d="M-387.3,284.9c0.5,0,1-0.1,1.4-0.3s0.7-0.4,1-0.7c0.3-0.3,0.5-0.7,0.6-1.1s0.2-0.9,0.2-1.4v-6.6h0.8v6.6
			c0,0.6-0.1,1.1-0.3,1.6c-0.2,0.5-0.5,1-0.8,1.3c-0.3,0.4-0.8,0.7-1.3,0.9s-1.1,0.3-1.7,0.3s-1.2-0.1-1.7-0.3s-0.9-0.5-1.3-0.9
			c-0.3-0.4-0.6-0.8-0.8-1.3s-0.3-1.1-0.3-1.6v-6.6h0.8v6.6c0,0.5,0.1,1,0.2,1.4s0.4,0.8,0.6,1.1c0.3,0.3,0.6,0.6,1,0.7
			C-388.2,284.8-387.8,284.9-387.3,284.9z"/>
	</g>
</g>
</svg>
