<?xml version="1.0" encoding="utf-8"?>
<!-- Generator: Adobe Illustrator 19.0.0, SVG Export Plug-In . SVG Version: 6.00 Build 0)  -->
<svg version="1.1" id="Camada_1" xmlns="http://www.w3.org/2000/svg" xmlns:xlink="http://www.w3.org/1999/xlink" x="0px" y="0px"
	 viewBox="0 0 65.6 60.7" style="enable-background:new 0 0 65.6 60.7;" xml:space="preserve">
<style type="text/css">
	.st0{fill:#4D79A5;stroke:#FFFFFF;stroke-width:2;stroke-miterlimit:10;}
	.st1{fill:#CBE7F8;}
</style>
<path id="XMLID_1243_" class="st0" d="M11.9,52.9L2.8,37.2c-2.4-4.2-2.4-9.4,0-13.6l9.1-15.8C14.4,3.6,18.8,1,23.7,1h18.2
	c4.9,0,9.3,2.6,11.8,6.8l9.1,15.8c2.4,4.2,2.4,9.4,0,13.6l-9.1,15.8c-2.4,4.2-6.9,6.8-11.8,6.8H23.7C18.8,59.7,14.4,57.1,11.9,52.9z
	"/>
<g id="XMLID_1229_">
	<g id="XMLID_1240_">
		<g id="XMLID_1241_">
			<path id="XMLID_1242_" class="st1" d="M36.8,35.2c-1.6,0-2.8,1.3-2.8,2.8s1.3,2.8,2.8,2.8s2.8-1.3,2.8-2.8S38.4,35.2,36.8,35.2z"
				/>
		</g>
	</g>
	<g id="XMLID_1236_">
		<g id="XMLID_1237_">
			<path id="XMLID_1239_" class="st1" d="M42.6,38.2c-1.3,0-2.3,1-2.3,2.3c0,1.3,1,2.3,2.3,2.3s2.3-1,2.3-2.3
				C44.9,39.3,43.9,38.2,42.6,38.2z"/>
		</g>
	</g>
	<path id="XMLID_1230_" class="st1" d="M40.6,22.8c-0.8-2.9-3.4-4.9-6.5-4.9c-1.7,0-3.4,0.7-4.7,1.9c-0.8-0.4-1.6-0.7-2.5-0.7
		c-2.6,0-4.8,2-5.1,4.5c-1.9,0.8-3.2,2.6-3.2,4.7c0,3.7,3.8,6.2,7.2,4.7c1.4,1.6,3.5,2.5,5.6,2.5c2,0,3.9-0.8,5.2-2.2
		c3.8,1.8,8.2-0.9,8.2-5.1C44.9,25.7,43.1,23.4,40.6,22.8z M28.4,22.8c-0.1,0-2.5-0.2-2.9,1.9c-0.1,0.3-0.3,0.5-0.6,0.5
		c0,0-0.1,0-0.1,0c-0.3-0.1-0.6-0.4-0.5-0.7c0.5-2.6,3-3,4.2-2.9c0.3,0,0.6,0.3,0.6,0.7C29.1,22.6,28.8,22.8,28.4,22.8z"/>
</g>
</svg>
