<?xml version="1.0" encoding="utf-8"?>
<!-- Generator: Adobe Illustrator 24.1.2, SVG Export Plug-In . SVG Version: 6.00 Build 0)  -->
<svg version="1.1" id="Camada_1" xmlns="http://www.w3.org/2000/svg" xmlns:xlink="http://www.w3.org/1999/xlink" x="0px" y="0px"
	 viewBox="0 0 85.9 85.9" style="enable-background:new 0 0 85.9 85.9;" xml:space="preserve">
<style type="text/css">
	.st0{fill:#FFFFFF;}
	.st1{fill:#FDD20F;}
	.st2{fill:#395DA9;}
	.st3{fill:#26A9E0;}
</style>
<circle class="st0" cx="42.7" cy="43.2" r="41.5"/>
<g>
	<path class="st1" d="M43,86C19.3,86,0,66.7,0,43S19.3,0,43,0s43,19.3,43,43S66.7,86,43,86z M43,3C20.9,3,3,20.9,3,43s17.9,40,40,40
		s40-17.9,40-40S65.1,3,43,3z"/>
</g>
<circle class="st2" cx="50.9" cy="58" r="3.4"/>
<circle class="st2" cx="60.1" cy="62.1" r="2.6"/>
<path class="st3" d="M30.8,48.2l0.5,0.6c2.5,2.9,6.2,4.6,10,4.6c3.5,0,6.9-1.4,9.4-3.9l0.6-0.6l0.7,0.3c3.1,1.5,6.7,1.3,9.6-0.5
	s4.7-5,4.7-8.4c0-4.6-3.1-8.6-7.6-9.6L58,30.6L57.8,30c-1.4-5.1-6.1-8.7-11.4-8.7c-3.1,0-6,1.2-8.2,3.3l-0.6,0.6l-0.7-0.4
	c-1.3-0.8-2.8-1.1-4.3-1.1c-4.5,0-8.3,3.4-8.8,7.8L23.7,32l-0.6,0.2c-3.3,1.4-5.4,4.6-5.4,8.2c0,3,1.5,5.8,4,7.4
	c2.5,1.6,5.7,1.9,8.4,0.7L30.8,48.2z"/>
<path class="st0" d="M27.4,33.6c-0.1,0-0.1,0-0.1,0c-0.4-0.1-0.7-0.5-0.6-0.8c0.3-1.9,1.3-3.7,2.9-4.9c1.6-1.2,3.5-1.7,5.5-1.4
	c0.4,0.1,0.7,0.5,0.6,0.8c-0.1,0.4-0.4,0.7-0.8,0.6c-1.6-0.2-3.1,0.1-4.4,1.1c-1.2,1-2.1,2.3-2.4,3.9C28,33.4,27.7,33.6,27.4,33.6z"
	/>
</svg>
