<?xml version="1.0" encoding="utf-8"?>
<!-- Generator: Adobe Illustrator 19.0.0, SVG Export Plug-In . SVG Version: 6.00 Build 0)  -->
<svg version="1.1" id="Camada_1" xmlns="http://www.w3.org/2000/svg" xmlns:xlink="http://www.w3.org/1999/xlink" x="0px" y="0px"
	 viewBox="-446 250.3 65.6 60.7" style="enable-background:new -446 250.3 65.6 60.7;" xml:space="preserve">
<style type="text/css">
	.st0{fill:#4E9965;stroke:#FFFFFF;stroke-width:2;stroke-miterlimit:10;}
	.st1{fill:#FFFFFF;}
</style>
<path id="XMLID_795_" class="st0" d="M-434.1,303.2l-9.1-15.7c-2.4-4.2-2.4-9.4,0-13.6l9.1-15.8c2.5-4.2,6.9-6.8,11.8-6.8h18.2
	c4.9,0,9.3,2.6,11.8,6.8l9.1,15.8c2.4,4.2,2.4,9.4,0,13.6l-9.1,15.8c-2.4,4.2-6.9,6.8-11.8,6.8h-18.2
	C-427.2,310-431.6,307.4-434.1,303.2z"/>
<g id="XMLID_482_">
	<g id="XMLID_785_">
		<g id="XMLID_792_">
			<path id="XMLID_793_" class="st1" d="M-409.2,285.5c-1.6,0-2.8,1.3-2.8,2.8s1.3,2.8,2.8,2.8c1.6,0,2.8-1.3,2.8-2.8
				S-407.6,285.5-409.2,285.5z"/>
		</g>
	</g>
	<g id="XMLID_755_">
		<g id="XMLID_758_">
			<path id="XMLID_784_" class="st1" d="M-403.4,288.5c-1.3,0-2.3,1-2.3,2.3s1,2.3,2.3,2.3s2.3-1,2.3-2.3S-402.1,288.5-403.4,288.5z
				"/>
		</g>
	</g>
	<path id="XMLID_747_" class="st1" d="M-405.4,273.1c-0.8-2.9-3.4-4.9-6.5-4.9c-1.7,0-3.4,0.7-4.7,1.9c-0.8-0.4-1.6-0.7-2.5-0.7
		c-2.6,0-4.8,2-5.1,4.5c-1.9,0.8-3.2,2.6-3.2,4.7c0,3.7,3.8,6.2,7.2,4.7c1.4,1.6,3.5,2.5,5.6,2.5c2,0,3.9-0.8,5.2-2.2
		c3.8,1.8,8.2-0.9,8.2-5.1C-401.1,276-402.9,273.7-405.4,273.1z M-417.6,273.1c-0.1,0-2.5-0.2-2.9,1.9c-0.1,0.3-0.3,0.5-0.6,0.5
		h-0.1c-0.3-0.1-0.6-0.4-0.5-0.7c0.5-2.6,3-3,4.2-2.9c0.3,0,0.6,0.3,0.6,0.7C-416.9,272.9-417.2,273.1-417.6,273.1z"/>
</g>
</svg>
