<?xml version="1.0" encoding="utf-8"?>
<!-- Generator: Adobe Illustrator 19.0.0, SVG Export Plug-In . SVG Version: 6.00 Build 0)  -->
<svg version="1.1" id="Camada_1" xmlns="http://www.w3.org/2000/svg" xmlns:xlink="http://www.w3.org/1999/xlink" x="0px" y="0px"
	 viewBox="0 0 43.7 56.2" style="enable-background:new 0 0 43.7 56.2;" xml:space="preserve">
<style type="text/css">
	.st0{fill:#5D78A1;}
	.st1{fill:#FFFFFF;}
</style>
<g id="XMLID_313_">
	<path id="XMLID_480_" class="st0" d="M39.4,14.8C37.9,7.5,30.5,2.7,23.2,4.2c-7.5,1.6-12.2,8.9-10.6,16.3
		C14.2,28,21.4,32.6,28.8,31C36.3,29.4,41,22.2,39.4,14.8z"/>
	<g id="XMLID_314_">
		<path id="XMLID_321_" class="st1" d="M37.5,31c-5.3,4.5-11.4,5.6-17.9,3.1c-1.1-0.4-1.7-0.4-2.2,0.7c-0.2,0.3-0.4,0.6-0.6,0.9
			c-0.5,0.6-0.7,1.2,0.2,1.7c0.7,0.4,0.3,0.9,0,1.3C13.6,44,10.2,49.3,6.8,54.6c-1,1.5-2.8,2-4.4,1.4c-2.3-0.9-3-3.5-1.5-5.8
			c3.1-4.9,6.3-9.8,9.4-14.7c0.5-0.8,0.9-2,2.3-1c0.1,0.1,0.3,0,0.4,0c0.7-0.8,1.3-1.7,1.7-2.7c0.3-0.7-0.5-1-0.9-1.4
			c-4.8-5-6.5-10.8-4.6-17.5C10.9,6.2,15.5,2,22.2,0.4c9.3-2.2,18.9,4,21.2,14.7C44.4,20.6,42.7,26.5,37.5,31z M39.4,14.8
			C37.9,7.5,30.5,2.7,23.2,4.2c-7.5,1.6-12.2,8.9-10.6,16.3C14.2,28,21.4,32.6,28.8,31C36.3,29.4,41,22.2,39.4,14.8z"/>
		<path id="XMLID_320_" class="st1" d="M16.3,24.5C15,15,19,8.9,28,6c-2.9-1.2-9.4,0.7-12.3,5.8C13.4,15.9,13.6,22.3,16.3,24.5z"/>
	</g>
</g>
</svg>
