<?xml version="1.0" encoding="utf-8"?>
<!-- Generator: Adobe Illustrator 19.0.0, SVG Export Plug-In . SVG Version: 6.00 Build 0)  -->
<svg version="1.1" id="Camada_1" xmlns="http://www.w3.org/2000/svg" xmlns:xlink="http://www.w3.org/1999/xlink" x="0px" y="0px"
	 viewBox="0 0 65.6 60.7" style="enable-background:new 0 0 65.6 60.7;" xml:space="preserve">
<style type="text/css">
	.st0{fill:#4D79A5;stroke:#FFFFFF;stroke-width:2;stroke-miterlimit:10;}
	.st1{fill:#CBE7F8;}
</style>
<path id="XMLID_8_" class="st0" d="M11.9,52.9L2.8,37.2c-2.4-4.2-2.4-9.4,0-13.6l9.1-15.8C14.4,3.6,18.8,1,23.7,1h18.2
	c4.9,0,9.3,2.6,11.8,6.8l9.1,15.8c2.4,4.2,2.4,9.4,0,13.6l-9.1,15.8c-2.4,4.2-6.9,6.8-11.8,6.8H23.7C18.8,59.7,14.4,57.1,11.9,52.9z
	"/>
<g id="XMLID_942_">
	<path id="XMLID_1103_" class="st1" d="M44,31.8c-3.4,3.1-7.4,4-11.7,2.5c-0.7-0.2-1.2-0.2-1.4,0.5c-0.1,0.2-0.2,0.4-0.4,0.6
		c-0.3,0.4-0.4,0.8,0.2,1.1c0.4,0.2,0.2,0.6,0,0.9c-2.1,3.6-4.2,7.2-6.3,10.7c-0.6,1-1.8,1.4-2.9,1c-1.6-0.5-2.1-2.2-1.2-3.8
		c1.9-3.3,3.9-6.6,5.9-10c0.3-0.6,0.6-1.4,1.5-0.7c0.1,0,0.2,0,0.3,0c0.4-0.6,0.8-1.2,1.1-1.8c0.2-0.5-0.4-0.6-0.7-0.9
		c-3.3-3.1-4.6-7-3.5-11.4c1.1-4.4,4-7.3,8.4-8.5c6.1-1.7,12.6,2.2,14.4,9.2C48.2,24.8,47.3,28.7,44,31.8z M44.9,21.1
		c-1.2-4.8-6.2-7.8-11-6.6c-4.9,1.3-7.8,6.2-6.6,11.1c1.3,4.9,6.1,7.7,11,6.5C43.1,30.8,46.1,26,44.9,21.1z"/>
	<path id="XMLID_944_" class="st1" d="M29.8,28.1c-1.1-6.2,1.4-10.4,7.3-12.5c-1.9-0.7-6.2,0.7-8,4.1C27.7,22.5,28,26.7,29.8,28.1z"
		/>
</g>
</svg>
