<?xml version="1.0" encoding="utf-8"?>
<!-- Generator: Adobe Illustrator 19.0.0, SVG Export Plug-In . SVG Version: 6.00 Build 0)  -->
<svg version="1.1" xmlns="http://www.w3.org/2000/svg" xmlns:xlink="http://www.w3.org/1999/xlink" x="0px" y="0px"
	 viewBox="-446 250.3 65.6 60.7" style="enable-background:new -446 250.3 65.6 60.7;" xml:space="preserve">
<style type="text/css">
	.st0{fill:#CBE7F8;stroke:#4D79A5;stroke-width:2;stroke-miterlimit:10;}
	.st1{fill:#4D79A5;}
</style>
<g id="Camada_2">
</g>
<g id="Camada_1">
	<path id="XMLID_8_" class="st0" d="M-434.1,303.2l-9.1-15.7c-2.4-4.2-2.4-9.4,0-13.6l9.1-15.8c2.5-4.2,6.9-6.8,11.8-6.8h18.2
		c4.9,0,9.3,2.6,11.8,6.8l9.1,15.8c2.4,4.2,2.4,9.4,0,13.6l-9.1,15.8c-2.4,4.2-6.9,6.8-11.8,6.8h-18.2
		C-427.2,310-431.6,307.4-434.1,303.2z"/>
	<g id="XMLID_942_">
		<path id="XMLID_1103_" class="st1" d="M-402,282.1c-3.4,3.1-7.4,4-11.7,2.5c-0.7-0.2-1.2-0.2-1.4,0.5c-0.1,0.2-0.2,0.4-0.4,0.6
			c-0.3,0.4-0.4,0.8,0.2,1.1c0.4,0.2,0.2,0.6,0,0.9c-2.1,3.6-4.2,7.2-6.3,10.7c-0.6,1-1.8,1.4-2.9,1c-1.6-0.5-2.1-2.2-1.2-3.8
			c1.9-3.3,3.9-6.6,5.9-10c0.3-0.6,0.6-1.4,1.5-0.7c0.1,0,0.2,0,0.3,0c0.4-0.6,0.8-1.2,1.1-1.8c0.2-0.5-0.4-0.6-0.7-0.9
			c-3.3-3.1-4.6-7-3.5-11.4c1.1-4.4,4-7.3,8.4-8.5c6.1-1.7,12.6,2.2,14.4,9.2C-397.8,275.1-398.7,279-402,282.1z M-401.1,271.4
			c-1.2-4.8-6.2-7.8-11-6.6c-4.9,1.3-7.8,6.2-6.6,11.1c1.3,4.9,6.1,7.7,11,6.5C-402.9,281.1-399.9,276.3-401.1,271.4z"/>
		<path id="XMLID_944_" class="st1" d="M-416.2,278.4c-1.1-6.2,1.4-10.4,7.3-12.5c-1.9-0.7-6.2,0.7-8,4.1
			C-418.3,272.8-418,277-416.2,278.4z"/>
	</g>
</g>
</svg>
